<svg xmlns="http://www.w3.org/2000/svg" width="133.685" height="41.787" viewBox="0 0 133.685 41.787"><defs><style>.a{fill:#7b2aff;}</style></defs><g transform="translate(-98.999 -42)"><path class="a" d="M538.952,1284.087a7.13,7.13,0,0,0-3.2.749,7.256,7.256,0,0,0-3.274,3.3l-.008.016c-.02.041-.039.083-.058.124l-1.987,4.2H517.23a3.012,3.012,0,0,0,0,6.023h10.342l-6.144,12.977h-4.717v2.106h3.72l-.854,1.8H516.71a3.291,3.291,0,1,0,2.916,4.813h0l14.683-31.015.058-.123h0a5.136,5.136,0,0,1,2.318-2.332,5.029,5.029,0,0,1,2.264-.53,5.1,5.1,0,1,1,0,10.193H535.23l.856-1.808h2.782l.084,0,.126,0a3.291,3.291,0,1,0-3.051-4.8l-.006.014h0l-10.546,22.279-4.119,8.7h0l-.01.022c-.017.037-.035.074-.053.112a5.131,5.131,0,0,1-2.4,2.372,5.047,5.047,0,0,1-2.176.486,5.095,5.095,0,1,1,0-10.19v-2.106a7.2,7.2,0,1,0,3.075,13.714,7.244,7.244,0,0,0,3.4-3.348l0-.012h0l2.054-4.34h13.17a3.008,3.008,0,1,0,0-6.015H528.09l6.143-12.979h4.719a7.2,7.2,0,1,0,0-14.4Zm-21.722,12.3a.9.9,0,0,1,0-1.809h12.2l-.857,1.809Zm-.52,23.468a1.185,1.185,0,1,1,0-2.369h1.87l-.819,1.73A1.179,1.179,0,0,1,516.71,1319.855Zm22.242-29.75a1.184,1.184,0,0,1,.047,2.367h-1.916l.819-1.729A1.179,1.179,0,0,1,538.952,1290.1Zm-.539,23.472a.9.9,0,1,1,0,1.8H526.24l.853-1.8Z" transform="translate(-410.508 -1242.087)"/><g transform="translate(-410.508 -1242.087)"><path class="a" d="M555.015,1299.156a.719.719,0,0,1,.213-.551.788.788,0,0,1,.564-.2h8.9a.85.85,0,0,1,.539.188.673.673,0,0,1,.238.564v1.68a1.611,1.611,0,0,1-.013.188.475.475,0,0,1-.112.238l-5.792,6.318h5.24a.688.688,0,0,1,.777.778v1.5a.881.881,0,0,1-.213.564.691.691,0,0,1-.564.263h-9.277a.71.71,0,0,1-.551-.251.836.836,0,0,1-.226-.576v-1.329c0-.083,0-.171.013-.263a.423.423,0,0,1,.138-.263q.651-.727,1.441-1.555t1.592-1.68l1.593-1.692q.789-.84,1.441-1.567h-5.165a.7.7,0,0,1-.777-.8Z"/><path class="a" d="M571.638,1298.981v11.132q0,.576-.627.576H568.83a.509.509,0,0,1-.577-.576v-11.132a.623.623,0,0,1,.15-.439.551.551,0,0,1,.427-.163h2.181a.664.664,0,0,1,.426.163A.536.536,0,0,1,571.638,1298.981Z"/><path class="a" d="M577.1,1298.379a1.029,1.029,0,0,1,.564.125.8.8,0,0,1,.289.351,2.269,2.269,0,0,1,.15.514q.049.289.125.615a5.969,5.969,0,0,1,1.555-1.2,4.417,4.417,0,0,1,2.206-.551,5.37,5.37,0,0,1,2.081.376,4.467,4.467,0,0,1,1.53,1.028,4.311,4.311,0,0,1,.952,1.567,5.906,5.906,0,0,1,.326,1.993v6.9a.6.6,0,0,1-.15.476.691.691,0,0,1-.452.125h-2.306c-.268,0-.431-.037-.489-.113a.818.818,0,0,1-.088-.463v-6.344a2.149,2.149,0,0,0-.652-1.642,2.338,2.338,0,0,0-2.469-.439,3.461,3.461,0,0,0-.815.464,2.82,2.82,0,0,0-.64.69,2.2,2.2,0,0,0-.338.852v6.444a.586.586,0,0,1-.125.438.783.783,0,0,1-.5.113H575.6a.672.672,0,0,1-.489-.125.637.637,0,0,1-.113-.426v-11.007a.665.665,0,0,1,.752-.752Z"/><path class="a" d="M598.59,1310.94a3.876,3.876,0,0,0,.138-.815q.037-.489.037-.915a3.473,3.473,0,0,1-1.128,1.216,3.357,3.357,0,0,1-1.905.489,5.84,5.84,0,0,1-4.325-1.843,6.16,6.16,0,0,1-1.266-2.031,6.843,6.843,0,0,1-.452-2.494,6.754,6.754,0,0,1,.452-2.483,6.044,6.044,0,0,1,1.266-2.005,5.969,5.969,0,0,1,1.918-1.342,5.867,5.867,0,0,1,2.407-.488,3.646,3.646,0,0,1,2.043.551,6.844,6.844,0,0,1,1.391,1.178l.226-.9a2.518,2.518,0,0,1,.226-.5q.1-.15.476-.15h1.454a.851.851,0,0,1,.514.176.61.61,0,0,1,.238.526v10.605a6.779,6.779,0,0,1-.488,2.658,5.511,5.511,0,0,1-1.354,1.943,5.909,5.909,0,0,1-2.019,1.2,7.367,7.367,0,0,1-2.507.414,8.965,8.965,0,0,1-2.307-.313,6.22,6.22,0,0,1-1.153-.439,4.51,4.51,0,0,1-.977-.652,1,1,0,0,1-.226-.263.681.681,0,0,1-.1-.364,1.251,1.251,0,0,1,.026-.25.492.492,0,0,1,.15-.251l1-1.354a.764.764,0,0,1,.5-.276.926.926,0,0,1,.527.226,2.481,2.481,0,0,0,1.216.589,6.673,6.673,0,0,0,1.241.138,3.163,3.163,0,0,0,.865-.125,3.664,3.664,0,0,0,.827-.351,2.737,2.737,0,0,0,.677-.552A1.712,1.712,0,0,0,598.59,1310.94Zm-5.616-6.343a3.885,3.885,0,0,0,.213,1.3,3.139,3.139,0,0,0,.614,1.053,2.827,2.827,0,0,0,.953.7,2.933,2.933,0,0,0,1.228.25,2.783,2.783,0,0,0,2.219-.94,3.453,3.453,0,0,0,.815-2.344,4.123,4.123,0,0,0-.2-1.291,3.1,3.1,0,0,0-.6-1.078,2.909,2.909,0,0,0-.953-.728,2.945,2.945,0,0,0-1.279-.263,2.905,2.905,0,0,0-1.241.263,2.733,2.733,0,0,0-.953.728,3.413,3.413,0,0,0-.6,1.065A3.8,3.8,0,0,0,592.974,1304.6Z"/><path class="a" d="M605.66,1310.062v-17.349q0-.627.577-.627h2.206a.554.554,0,0,1,.627.627v7.02a4.074,4.074,0,0,1,1.291-1.091,3.935,3.935,0,0,1,1.893-.413,5.519,5.519,0,0,1,2.356.5,5.575,5.575,0,0,1,1.843,1.366,6.52,6.52,0,0,1,1.2,2.019,6.933,6.933,0,0,1,.439,2.482,6.775,6.775,0,0,1-.452,2.469,6.372,6.372,0,0,1-1.228,2.019,5.833,5.833,0,0,1-1.843,1.353,5.372,5.372,0,0,1-2.319.5,4.35,4.35,0,0,1-2.006-.414,3.984,3.984,0,0,1-1.429-1.316c-.034.184-.067.347-.1.489s-.067.288-.1.439a.619.619,0,0,1-.551.5,7.2,7.2,0,0,1-.853.05h-.952A.572.572,0,0,1,605.66,1310.062Zm3.084-5.415a3.444,3.444,0,0,0,.238,1.279,3.189,3.189,0,0,0,1.617,1.742,2.687,2.687,0,0,0,2.319,0,3.02,3.02,0,0,0,.94-.714,3.535,3.535,0,0,0,.64-1.053,3.464,3.464,0,0,0,.238-1.279,3.7,3.7,0,0,0-.226-1.291,3.415,3.415,0,0,0-.614-1.066,2.87,2.87,0,0,0-.928-.714,2.556,2.556,0,0,0-1.14-.264,2.7,2.7,0,0,0-1.179.264,3.257,3.257,0,0,0-.978.714,3.462,3.462,0,0,0-.927,2.357Z"/><path class="a" d="M629.854,1310.689a1.188,1.188,0,0,1-.577-.113.722.722,0,0,1-.3-.313,2.115,2.115,0,0,1-.163-.476c-.042-.184-.087-.385-.138-.6a4.98,4.98,0,0,1-1.642,1.153,5.309,5.309,0,0,1-2.294.5,5.371,5.371,0,0,1-2.043-.364,4.029,4.029,0,0,1-1.492-1.028,4.352,4.352,0,0,1-.9-1.567,6.247,6.247,0,0,1-.3-1.98v-6.77a.709.709,0,0,1,.727-.752h2.055a.676.676,0,0,1,.552.188.846.846,0,0,1,.151.539v6.218a2.23,2.23,0,0,0,.589,1.63,2.092,2.092,0,0,0,1.567.6,2.941,2.941,0,0,0,.9-.163,3.912,3.912,0,0,0,.928-.438,2.809,2.809,0,0,0,.727-.677,1.429,1.429,0,0,0,.3-.878v-6.318q0-.7.727-.7h2.031a.67.67,0,0,1,.727.7v10.856a.676.676,0,0,1-.777.752Z"/><path class="a" d="M633.339,1308.558a.464.464,0,0,1-.051-.251.773.773,0,0,1,.025-.175.3.3,0,0,1,.151-.176l1.529-1.228a.3.3,0,0,1,.276-.125.782.782,0,0,1,.4.175q.477.4,1.078.878a2.165,2.165,0,0,0,1.379.476,1.494,1.494,0,0,0,1.166-.364,1.247,1.247,0,0,0,.314-.84.657.657,0,0,0-.226-.488,2.842,2.842,0,0,0-.527-.389,3.673,3.673,0,0,0-.614-.288,5.263,5.263,0,0,0-.514-.163,7.326,7.326,0,0,1-3.171-1.492,3.146,3.146,0,0,1-.966-2.394,2.875,2.875,0,0,1,.339-1.367,3.591,3.591,0,0,1,.952-1.128,4.775,4.775,0,0,1,1.48-.777,6.041,6.041,0,0,1,1.918-.289,5.866,5.866,0,0,1,2.256.414,6.034,6.034,0,0,1,1.755,1.091,1.23,1.23,0,0,1,.452.752c0,.067-.093.192-.276.376a8.079,8.079,0,0,1-.614.551c-.226.185-.444.348-.652.489a1.071,1.071,0,0,1-.414.213.632.632,0,0,1-.426-.225,6.212,6.212,0,0,0-.828-.589,2.292,2.292,0,0,0-1.2-.289,2.253,2.253,0,0,0-.89.176.647.647,0,0,0-.414.652.8.8,0,0,0,.514.714,8.932,8.932,0,0,0,1.417.539,18.709,18.709,0,0,1,1.742.69,5.6,5.6,0,0,1,1.341.84,3.428,3.428,0,0,1,.853,1.09,3.252,3.252,0,0,1,.3,1.442,3.4,3.4,0,0,1-.414,1.692,3.659,3.659,0,0,1-1.116,1.229,5.185,5.185,0,0,1-1.617.739,7.137,7.137,0,0,1-1.893.251,6.447,6.447,0,0,1-2.482-.476,5.4,5.4,0,0,1-1.955-1.354A2.032,2.032,0,0,1,633.339,1308.558Z"/></g></g></svg>